<svg xmlns="http://www.w3.org/2000/svg" viewBox="0 0 64 64" fill="none">
  <rect width="64" height="64" rx="18" fill="#07111B"/>
  <rect x="7" y="7" width="50" height="50" rx="15" fill="url(#bg)" stroke="#28445F" stroke-width="2"/>
  <circle cx="17" cy="18" r="1.5" fill="#F4F7FB" fill-opacity=".9"/>
  <circle cx="24" cy="13" r="1" fill="#67D7FF" fill-opacity=".9"/>
  <circle cx="46" cy="17" r="1.25" fill="#F4F7FB" fill-opacity=".78"/>
  <circle cx="50" cy="24" r="1" fill="#67D7FF" fill-opacity=".72"/>
  <path d="M33.5 16C38.5 19 41.5 24.5 41.5 31.5C41.5 38.5 38.5 43 33.5 48C28.5 43 25.5 38.5 25.5 31.5C25.5 24.5 28.5 19 33.5 16Z" fill="url(#rocket)"/>
  <path d="M33.5 12L39.5 22H27.5L33.5 12Z" fill="#F4F7FB"/>
  <circle cx="33.5" cy="27" r="3.2" fill="#67D7FF"/>
  <path d="M24 31L28 33.5L28 26.5L24 31Z" fill="#3D7FAA"/>
  <path d="M43 31L39 33.5L39 26.5L43 31Z" fill="#3D7FAA"/>
  <path d="M30 43C31.6 47.5 35.4 47.5 37 43C35.5 44 34.6 44.4 33.5 44.4C32.4 44.4 31.5 44 30 43Z" fill="url(#flame)"/>
  <defs>
    <linearGradient id="bg" x1="12" y1="10" x2="52" y2="57" gradientUnits="userSpaceOnUse">
      <stop stop-color="#102239"/>
      <stop offset="1" stop-color="#0B1626"/>
    </linearGradient>
    <linearGradient id="rocket" x1="33.5" y1="16" x2="33.5" y2="48" gradientUnits="userSpaceOnUse">
      <stop stop-color="#F9FBFF"/>
      <stop offset=".45" stop-color="#DCEAF6"/>
      <stop offset="1" stop-color="#98B7CD"/>
    </linearGradient>
    <linearGradient id="flame" x1="33.5" y1="43" x2="33.5" y2="48" gradientUnits="userSpaceOnUse">
      <stop stop-color="#FFE9A2"/>
      <stop offset=".55" stop-color="#F3B56C"/>
      <stop offset="1" stop-color="#FF6D2C"/>
    </linearGradient>
  </defs>
</svg>
